<?xml version="1.0" encoding="utf-8"?>
<!-- Generator: Adobe Illustrator 16.0.4, SVG Export Plug-In . SVG Version: 6.00 Build 0)  -->
<!DOCTYPE svg PUBLIC "-//W3C//DTD SVG 1.1//EN" "http://www.w3.org/Graphics/SVG/1.1/DTD/svg11.dtd">
<svg version="1.1" id="Layer_1" xmlns="http://www.w3.org/2000/svg" xmlns:xlink="http://www.w3.org/1999/xlink" x="0px" y="0px"
	 width="168px" height="190px" viewBox="312.5 211.5 168 190" enable-background="new 312.5 211.5 168 190" xml:space="preserve">
<polygon fill="none" stroke="#010101" stroke-width="3.9" stroke-miterlimit="10" points="318.731,262.317 396.721,217.291 
	474.71,262.317 474.71,352.373 396.721,397.401 318.731,352.373 "/>
<path fill="none" stroke="#010101" stroke-width="3" stroke-miterlimit="10" d="M333.57,312.651l4.775,4.936l19.892,0.092
	c1.345-2.02,3.644-3.344,6.254-3.344c2.691,0,5.057,1.418,6.385,3.545l20.093,0.16c1.426-4.594,5.092-8.198,9.719-9.545
	l0.017-19.787c-1.025-1.029-1.664-2.449-1.664-4.021c0-3.135,2.543-5.678,5.678-5.678l0.413,0.018l16.956-17.375
	c-0.021-0.209-0.031-0.422-0.031-0.637c0-3.449,2.795-6.242,6.244-6.242c3.448,0,6.242,2.793,6.242,6.242
	c0,3.447-2.794,6.244-6.242,6.244c-0.062,0,0,0,0,0l-17.91,17.078c0.009,0.115,0.011,0.234,0.011,0.35
	c0,1.529-0.604,2.914-1.582,3.938l-0.069,19.869c5.989,1.739,10.367,7.27,10.367,13.826c0,2.457-0.614,4.771-1.701,6.796
	l0.229,0.258l9.255,9.645c2.729,0.246,4.866,2.541,4.866,5.337c0,2.956-2.397,5.356-5.354,5.356c-2.874,0-5.213-2.262-5.353-5.098
	l-9.685-9.525c-1.989,1.039-4.253,1.627-6.655,1.627c-6.684,0-12.306-4.562-13.925-10.737l-20.064,0.08
	c-1.351,2-3.639,3.313-6.235,3.313c-2.61,0-4.905-1.321-6.254-3.339l-27.896,0.086"/>
</svg>
